<svg xmlns="http://www.w3.org/2000/svg" viewBox="0 0 96 96" role="img" aria-label="customer">
  <circle cx="48" cy="48" r="44" fill="#fff4f6"/>
  <path d="M22 43c0-18 11-30 26-30s26 12 26 30v7H22z" fill="#6d4a3a"/>
  <circle cx="48" cy="47" r="25" fill="#ffd9bd"/>
  <circle cx="38" cy="47" r="4" fill="#28212a"/>
  <circle cx="58" cy="47" r="4" fill="#28212a"/>
  <path d="M39 61c5 5 13 5 18 0" fill="none" stroke="#28212a" stroke-width="4" stroke-linecap="round"/>
  <path d="M19 79c5-14 15-20 29-20s24 6 29 20" fill="#f44d61"/>
  <circle cx="67" cy="26" r="9" fill="#ff2940"/>
  <path d="M58 26c-10-8-15 6-3 9zM76 26c10-8 15 6 3 9z" fill="#ff2940"/>
</svg>
