<svg xmlns="http://www.w3.org/2000/svg" viewBox="0 0 96 96" role="img" aria-label="customer">
  <circle cx="48" cy="48" r="44" fill="#f5f0ff"/>
  <path d="M21 43c2-18 12-29 27-29s25 11 27 29c-7-8-16-12-27-12s-20 4-27 12z" fill="#b07141"/>
  <circle cx="48" cy="49" r="24" fill="#ffe0c7"/>
  <circle cx="39" cy="49" r="4" fill="#28212a"/>
  <circle cx="58" cy="49" r="4" fill="#28212a"/>
  <path d="M39 62c5 5 13 5 18 0" fill="none" stroke="#28212a" stroke-width="4" stroke-linecap="round"/>
  <path d="M20 80c6-14 15-20 28-20s22 6 28 20" fill="#a98be8"/>
  <circle cx="29" cy="33" r="7" fill="#53c6ae"/>
  <circle cx="67" cy="33" r="7" fill="#53c6ae"/>
</svg>
