<svg xmlns="http://www.w3.org/2000/svg" viewBox="0 0 96 96" role="img" aria-label="florist">
  <circle cx="48" cy="48" r="44" fill="#eefbf4"/>
  <circle cx="48" cy="46" r="25" fill="#ffd8bb"/>
  <path d="M23 42c2-17 12-29 25-29 15 0 24 12 26 29-13-3-22-12-29-22-4 11-11 18-22 22z" fill="#6d4a3a"/>
  <circle cx="39" cy="48" r="4" fill="#28212a"/>
  <circle cx="58" cy="48" r="4" fill="#28212a"/>
  <path d="M39 61c6 4 12 4 18 0" fill="none" stroke="#28212a" stroke-width="4" stroke-linecap="round"/>
  <path d="M19 80c5-14 15-21 29-21s24 7 29 21" fill="#53c6ae"/>
  <path d="M69 70c7-10 12-17 7-23-9 1-13 9-7 23z" fill="#39966f"/>
  <circle cx="76" cy="47" r="7" fill="#f44d61"/>
  <circle cx="68" cy="44" r="6" fill="#f4c542"/>
</svg>
