<svg xmlns="http://www.w3.org/2000/svg" viewBox="0 0 96 96" role="img" aria-label="shopper">
  <circle cx="48" cy="48" r="44" fill="#fff7dd"/>
  <circle cx="48" cy="45" r="24" fill="#ffd9bd"/>
  <path d="M24 42c1-18 11-29 24-29 14 0 24 11 25 29-7-7-16-11-25-11s-17 4-24 11z" fill="#3b3540"/>
  <circle cx="39" cy="47" r="4" fill="#28212a"/>
  <circle cx="58" cy="47" r="4" fill="#28212a"/>
  <path d="M39 60c6 5 12 5 18 0" fill="none" stroke="#28212a" stroke-width="4" stroke-linecap="round"/>
  <path d="M21 80c5-14 14-21 27-21s22 7 27 21" fill="#f4c542"/>
  <path d="M62 55h20l-4 24H58z" fill="#f44d61"/>
  <path d="M64 55c1-8 14-8 15 0" fill="none" stroke="#28212a" stroke-width="4" stroke-linecap="round"/>
</svg>
